<svg width="22" height="21" viewBox="0 0 22 21" fill="none" xmlns="http://www.w3.org/2000/svg">
<path fill-rule="evenodd" clip-rule="evenodd" d="M4.66684 0.127502C2.255 0.127502 0.299805 2.08269 0.299805 4.49454V16.3051C0.299805 18.717 2.255 20.6722 4.66685 20.6722H17.6188C20.0307 20.6722 21.9858 18.717 21.9858 16.3051V4.49454C21.9858 2.08269 20.0307 0.127502 17.6188 0.127502H4.66684ZM4.65825 13.9693C4.65825 15.7782 6.12464 17.2446 7.93353 17.2446H14.352C16.1609 17.2446 17.6273 15.7782 17.6273 13.9693V6.83033C17.6273 5.02145 16.1609 3.55505 14.352 3.55505H7.93353C6.12464 3.55505 4.65825 5.02144 4.65825 6.83033V13.9693Z" fill="#FF4B00"/>
</svg>
