<svg width="139" height="30" viewBox="0 0 139 30" fill="none" xmlns="http://www.w3.org/2000/svg">
<path fill-rule="evenodd" clip-rule="evenodd" d="M4.66684 4.1275C2.255 4.1275 0.299805 6.08269 0.299805 8.49454V20.3051C0.299805 22.717 2.255 24.6722 4.66685 24.6722H17.6188C20.0307 24.6722 21.9858 22.717 21.9858 20.3051V8.49454C21.9858 6.08269 20.0307 4.1275 17.6188 4.1275H4.66684ZM4.65825 17.9693C4.65825 19.7782 6.12464 21.2446 7.93353 21.2446H14.352C16.1609 21.2446 17.6273 19.7782 17.6273 17.9693V10.8303C17.6273 9.02145 16.1609 7.55505 14.352 7.55505H7.93353C6.12464 7.55505 4.65825 9.02144 4.65825 10.8303V17.9693Z" fill="#FF4B00"/>
<path d="M28.1952 22.0705V19.924H30.2969V8.5655H28.1952V6.41901H34.4558C36.5426 6.41901 38.1376 6.94818 39.2406 8.00652C40.3586 9.06485 40.9176 10.6598 40.9176 12.7914V15.7205C40.9176 17.852 40.3586 19.447 39.2406 20.5053C38.1376 21.5488 36.5426 22.0705 34.4558 22.0705H28.1952ZM32.7341 19.8793H34.4781C35.8346 19.8793 36.8407 19.5364 37.4966 18.8507C38.1525 18.1651 38.4804 17.144 38.4804 15.7875V12.702C38.4804 11.3306 38.1525 10.3095 37.4966 9.63874C36.8407 8.96796 35.8346 8.63258 34.4781 8.63258H32.7341V19.8793ZM46.7766 22.0705V6.41901H56.637V8.61022H49.1914V13.1044H56.0109V15.2956H49.1914V19.8793H56.7488V22.0705H46.7766ZM67.7181 22.3835C66.5405 22.3835 65.4971 22.1748 64.5878 21.7575C63.6785 21.3401 62.963 20.7289 62.4413 19.924C61.9345 19.1042 61.6811 18.1129 61.6811 16.9502V16.3912H64.0735V16.9502C64.0735 18.0533 64.4015 18.8806 65.0574 19.4321C65.7281 19.9836 66.615 20.2594 67.7181 20.2594C68.8361 20.2594 69.6783 20.0283 70.2447 19.5662C70.8111 19.0892 71.0943 18.4781 71.0943 17.7328C71.0943 17.2409 70.9602 16.8384 70.6919 16.5254C70.4236 16.2124 70.0435 15.9664 69.5516 15.7875C69.0597 15.5938 68.4709 15.4149 67.7852 15.2509L66.9579 15.0497C65.9592 14.8112 65.0872 14.5205 64.3419 14.1777C63.6115 13.8199 63.045 13.3504 62.6426 12.769C62.2401 12.1877 62.0389 11.4424 62.0389 10.5331C62.0389 9.60893 62.2624 8.8189 62.7096 8.16303C63.1717 7.50716 63.8052 7.00035 64.6102 6.6426C65.4151 6.28485 66.3616 6.10598 67.4498 6.10598C68.5379 6.10598 69.5068 6.29231 70.3565 6.66496C71.221 7.03762 71.8993 7.58914 72.3912 8.31955C72.8831 9.04995 73.129 9.96668 73.129 11.0697V11.8747H70.7366V11.0697C70.7366 10.399 70.595 9.85488 70.3118 9.43751C70.0435 9.02014 69.6634 8.71456 69.1715 8.52078C68.6795 8.327 68.1057 8.23011 67.4498 8.23011C66.4958 8.23011 65.7505 8.43134 65.2139 8.83381C64.6922 9.22137 64.4313 9.76544 64.4313 10.466C64.4313 10.943 64.5431 11.338 64.7667 11.6511C65.0052 11.9492 65.348 12.1951 65.7952 12.3889C66.2424 12.5827 66.8014 12.7541 67.4722 12.9032L68.2994 13.1044C69.3131 13.328 70.2074 13.6187 70.9826 13.9764C71.7577 14.3193 72.3688 14.7888 72.816 15.3851C73.2632 15.9813 73.4868 16.749 73.4868 17.6881C73.4868 18.6272 73.2483 19.447 72.7713 20.1476C72.3092 20.8482 71.6459 21.3997 70.7813 21.8022C69.9168 22.1897 68.8957 22.3835 67.7181 22.3835ZM79.1521 22.0705V6.41901H81.5669V22.0705H79.1521ZM93.3928 22.3835C92.2748 22.3835 91.2761 22.145 90.3967 21.668C89.5172 21.1761 88.8241 20.4606 88.3173 19.5215C87.8104 18.5824 87.557 17.4347 87.557 16.0782V12.4113C87.557 10.3691 88.116 8.81145 89.234 7.73821C90.3519 6.65006 91.8649 6.10598 93.7729 6.10598C95.6511 6.10598 97.097 6.62024 98.1106 7.64877C99.1242 8.66239 99.631 10.0263 99.631 11.7405V11.8523H97.2386V11.6734C97.2386 11.0325 97.1119 10.4586 96.8585 9.95177C96.6051 9.43006 96.225 9.02014 95.7182 8.72201C95.2114 8.42389 94.5629 8.27483 93.7729 8.27483C92.5804 8.27483 91.6488 8.64003 90.978 9.37043C90.3072 10.0859 89.9718 11.0846 89.9718 12.3666V16.1229C89.9718 17.3899 90.3072 18.3961 90.978 19.1414C91.6488 19.8718 92.5879 20.237 93.7953 20.237C94.9878 20.237 95.8598 19.9091 96.4113 19.2532C96.9628 18.5973 97.2386 17.7477 97.2386 16.7043V16.4136H93.0351V14.3342H99.631V22.0705H97.3951V20.483H97.0374C96.9032 20.7662 96.702 21.0569 96.4337 21.355C96.1803 21.6531 95.8076 21.8991 95.3157 22.0928C94.8387 22.2866 94.1977 22.3835 93.3928 22.3835ZM105.872 22.0705V6.41901H110.523L114.771 20.4606H115.129V6.41901H117.521V22.0705H112.871L108.622 8.00652H108.265V22.0705H105.872ZM129.796 22.3835C127.874 22.3835 126.346 21.8469 125.213 20.7736C124.08 19.6855 123.513 18.1203 123.513 16.0782V12.4113C123.513 10.3691 124.08 8.81145 125.213 7.73821C126.346 6.65006 127.874 6.10598 129.796 6.10598C131.719 6.10598 133.247 6.65006 134.38 7.73821C135.528 8.81145 136.102 10.3691 136.102 12.4113V16.0782C136.102 18.1203 135.528 19.6855 134.38 20.7736C133.247 21.8469 131.719 22.3835 129.796 22.3835ZM129.796 20.2147C131.034 20.2147 131.988 19.8569 132.658 19.1414C133.329 18.411 133.665 17.4198 133.665 16.1676V12.3219C133.665 11.0697 133.329 10.0859 132.658 9.37043C131.988 8.64003 131.034 8.27483 129.796 8.27483C128.589 8.27483 127.643 8.64003 126.957 9.37043C126.271 10.0859 125.928 11.0697 125.928 12.3219V16.1676C125.928 17.4198 126.271 18.411 126.957 19.1414C127.643 19.8569 128.589 20.2147 129.796 20.2147Z" fill="#060606"/>
</svg>
